<mxfile host="65bd71144e" pages="3">
    <diagram id="DVf3BAT2TwA1G8b8UoEv" name="Klasse">
        <mxGraphModel dx="1278" dy="910" grid="1" gridSize="10" guides="1" tooltips="1" connect="1" arrows="1" fold="1" page="1" pageScale="1" pageWidth="850" pageHeight="1100" math="0" shadow="0">
            <root>
                <mxCell id="0"/>
                <mxCell id="1" parent="0"/>
                <mxCell id="NJdzegZAw7S-nIeyfylP-1" value="Dog" style="swimlane;fontStyle=1;align=center;verticalAlign=top;childLayout=stackLayout;horizontal=1;startSize=26;horizontalStack=0;resizeParent=1;resizeParentMax=0;resizeLast=0;collapsible=1;marginBottom=0;" parent="1" vertex="1">
                    <mxGeometry x="330" y="130" width="240" height="86" as="geometry"/>
                </mxCell>
                <mxCell id="NJdzegZAw7S-nIeyfylP-2" value="+ Geschlecht: String" style="text;strokeColor=none;fillColor=none;align=left;verticalAlign=top;spacingLeft=4;spacingRight=4;overflow=hidden;rotatable=0;points=[[0,0.5],[1,0.5]];portConstraint=eastwest;" parent="NJdzegZAw7S-nIeyfylP-1" vertex="1">
                    <mxGeometry y="26" width="240" height="26" as="geometry"/>
                </mxCell>
                <mxCell id="NJdzegZAw7S-nIeyfylP-3" value="" style="line;strokeWidth=1;fillColor=none;align=left;verticalAlign=middle;spacingTop=-1;spacingLeft=3;spacingRight=3;rotatable=0;labelPosition=right;points=[];portConstraint=eastwest;" parent="NJdzegZAw7S-nIeyfylP-1" vertex="1">
                    <mxGeometry y="52" width="240" height="8" as="geometry"/>
                </mxCell>
                <mxCell id="NJdzegZAw7S-nIeyfylP-4" value="+ Belle(BelllautstÃ¤rke: integer): void" style="text;strokeColor=none;fillColor=none;align=left;verticalAlign=top;spacingLeft=4;spacingRight=4;overflow=hidden;rotatable=0;points=[[0,0.5],[1,0.5]];portConstraint=eastwest;" parent="NJdzegZAw7S-nIeyfylP-1" vertex="1">
                    <mxGeometry y="60" width="240" height="26" as="geometry"/>
                </mxCell>
            </root>
        </mxGraphModel>
    </diagram>
    <diagram id="Dmz-TyoOekSsBhZnf6md" name="Vererbung">
        <mxGraphModel dx="1422" dy="839" grid="1" gridSize="10" guides="1" tooltips="1" connect="1" arrows="1" fold="1" page="1" pageScale="1" pageWidth="850" pageHeight="1100" math="0" shadow="0">
            <root>
                <mxCell id="0"/>
                <mxCell id="1" parent="0"/>
                <mxCell id="q8SmD_apr4-60-Zegjt9-17" value="&lt;&lt;abstract&gt;&gt;&#10;Shape" style="swimlane;fontStyle=1;align=center;verticalAlign=top;childLayout=stackLayout;horizontal=1;startSize=40;horizontalStack=0;resizeParent=1;resizeParentMax=0;resizeLast=0;collapsible=1;marginBottom=0;" vertex="1" parent="1">
                    <mxGeometry x="345" y="50" width="165" height="138" as="geometry"/>
                </mxCell>
                <mxCell id="q8SmD_apr4-60-Zegjt9-18" value="# height: double&#10;# width: doubel&#10;# color: String" style="text;strokeColor=none;fillColor=none;align=left;verticalAlign=top;spacingLeft=4;spacingRight=4;overflow=hidden;rotatable=0;points=[[0,0.5],[1,0.5]];portConstraint=eastwest;" vertex="1" parent="q8SmD_apr4-60-Zegjt9-17">
                    <mxGeometry y="40" width="165" height="64" as="geometry"/>
                </mxCell>
                <mxCell id="q8SmD_apr4-60-Zegjt9-19" value="" style="line;strokeWidth=1;fillColor=none;align=left;verticalAlign=middle;spacingTop=-1;spacingLeft=3;spacingRight=3;rotatable=0;labelPosition=right;points=[];portConstraint=eastwest;" vertex="1" parent="q8SmD_apr4-60-Zegjt9-17">
                    <mxGeometry y="104" width="165" height="8" as="geometry"/>
                </mxCell>
                <mxCell id="q8SmD_apr4-60-Zegjt9-20" value="+ calculateArea(): double" style="text;strokeColor=none;fillColor=none;align=left;verticalAlign=top;spacingLeft=4;spacingRight=4;overflow=hidden;rotatable=0;points=[[0,0.5],[1,0.5]];portConstraint=eastwest;" vertex="1" parent="q8SmD_apr4-60-Zegjt9-17">
                    <mxGeometry y="112" width="165" height="26" as="geometry"/>
                </mxCell>
                <mxCell id="q8SmD_apr4-60-Zegjt9-21" value="Circle" style="swimlane;fontStyle=1;align=center;verticalAlign=top;childLayout=stackLayout;horizontal=1;startSize=26;horizontalStack=0;resizeParent=1;resizeParentMax=0;resizeLast=0;collapsible=1;marginBottom=0;" vertex="1" parent="1">
                    <mxGeometry x="590" y="230" width="160" height="60" as="geometry"/>
                </mxCell>
                <mxCell id="q8SmD_apr4-60-Zegjt9-22" value="# radius: double" style="text;strokeColor=none;fillColor=none;align=left;verticalAlign=top;spacingLeft=4;spacingRight=4;overflow=hidden;rotatable=0;points=[[0,0.5],[1,0.5]];portConstraint=eastwest;" vertex="1" parent="q8SmD_apr4-60-Zegjt9-21">
                    <mxGeometry y="26" width="160" height="26" as="geometry"/>
                </mxCell>
                <mxCell id="q8SmD_apr4-60-Zegjt9-23" value="" style="line;strokeWidth=1;fillColor=none;align=left;verticalAlign=middle;spacingTop=-1;spacingLeft=3;spacingRight=3;rotatable=0;labelPosition=right;points=[];portConstraint=eastwest;" vertex="1" parent="q8SmD_apr4-60-Zegjt9-21">
                    <mxGeometry y="52" width="160" height="8" as="geometry"/>
                </mxCell>
                <mxCell id="q8SmD_apr4-60-Zegjt9-25" value="Rectangle" style="swimlane;fontStyle=1;align=center;verticalAlign=top;childLayout=stackLayout;horizontal=1;startSize=26;horizontalStack=0;resizeParent=1;resizeParentMax=0;resizeLast=0;collapsible=1;marginBottom=0;" vertex="1" parent="1">
                    <mxGeometry x="100" y="240" width="160" height="60" as="geometry"/>
                </mxCell>
                <mxCell id="q8SmD_apr4-60-Zegjt9-27" value="" style="line;strokeWidth=1;fillColor=none;align=left;verticalAlign=middle;spacingTop=-1;spacingLeft=3;spacingRight=3;rotatable=0;labelPosition=right;points=[];portConstraint=eastwest;" vertex="1" parent="q8SmD_apr4-60-Zegjt9-25">
                    <mxGeometry y="26" width="160" height="8" as="geometry"/>
                </mxCell>
                <mxCell id="q8SmD_apr4-60-Zegjt9-28" value="+ calculateArea(type): type" style="text;strokeColor=none;fillColor=none;align=left;verticalAlign=top;spacingLeft=4;spacingRight=4;overflow=hidden;rotatable=0;points=[[0,0.5],[1,0.5]];portConstraint=eastwest;" vertex="1" parent="q8SmD_apr4-60-Zegjt9-25">
                    <mxGeometry y="34" width="160" height="26" as="geometry"/>
                </mxCell>
                <mxCell id="q8SmD_apr4-60-Zegjt9-29" value="Extends" style="endArrow=block;endSize=16;endFill=0;html=1;rounded=0;exitX=0.5;exitY=0;exitDx=0;exitDy=0;entryX=0;entryY=0.5;entryDx=0;entryDy=0;" edge="1" parent="1" source="q8SmD_apr4-60-Zegjt9-25" target="q8SmD_apr4-60-Zegjt9-18">
                    <mxGeometry width="160" relative="1" as="geometry">
                        <mxPoint x="130" y="150" as="sourcePoint"/>
                        <mxPoint x="290" y="150" as="targetPoint"/>
                    </mxGeometry>
                </mxCell>
                <mxCell id="q8SmD_apr4-60-Zegjt9-30" value="Extends" style="endArrow=block;endSize=16;endFill=0;html=1;rounded=0;entryX=1;entryY=0.5;entryDx=0;entryDy=0;exitX=0.5;exitY=0;exitDx=0;exitDy=0;" edge="1" parent="1" source="q8SmD_apr4-60-Zegjt9-21" target="q8SmD_apr4-60-Zegjt9-17">
                    <mxGeometry width="160" relative="1" as="geometry">
                        <mxPoint x="400" y="360" as="sourcePoint"/>
                        <mxPoint x="560" y="360" as="targetPoint"/>
                    </mxGeometry>
                </mxCell>
            </root>
        </mxGraphModel>
    </diagram>
    <diagram id="cYBrRudk1TGK9g2zg7jU" name="Assoziation">
        <mxGraphModel dx="1278" dy="910" grid="1" gridSize="10" guides="1" tooltips="1" connect="1" arrows="1" fold="1" page="1" pageScale="1" pageWidth="850" pageHeight="1100" math="0" shadow="0">
            <root>
                <mxCell id="0"/>
                <mxCell id="1" parent="0"/>
                <mxCell id="cP-wxG9GYSZYWmtrEP54-1" value="Zoo" style="swimlane;fontStyle=1;align=center;verticalAlign=top;childLayout=stackLayout;horizontal=1;startSize=26;horizontalStack=0;resizeParent=1;resizeParentMax=0;resizeLast=0;collapsible=1;marginBottom=0;" parent="1" vertex="1">
                    <mxGeometry x="550" y="120" width="160" height="86" as="geometry"/>
                </mxCell>
                <mxCell id="cP-wxG9GYSZYWmtrEP54-2" value="+ field: type" style="text;strokeColor=none;fillColor=none;align=left;verticalAlign=top;spacingLeft=4;spacingRight=4;overflow=hidden;rotatable=0;points=[[0,0.5],[1,0.5]];portConstraint=eastwest;" parent="cP-wxG9GYSZYWmtrEP54-1" vertex="1">
                    <mxGeometry y="26" width="160" height="26" as="geometry"/>
                </mxCell>
                <mxCell id="cP-wxG9GYSZYWmtrEP54-3" value="" style="line;strokeWidth=1;fillColor=none;align=left;verticalAlign=middle;spacingTop=-1;spacingLeft=3;spacingRight=3;rotatable=0;labelPosition=right;points=[];portConstraint=eastwest;" parent="cP-wxG9GYSZYWmtrEP54-1" vertex="1">
                    <mxGeometry y="52" width="160" height="8" as="geometry"/>
                </mxCell>
                <mxCell id="cP-wxG9GYSZYWmtrEP54-4" value="+ method(type): type" style="text;strokeColor=none;fillColor=none;align=left;verticalAlign=top;spacingLeft=4;spacingRight=4;overflow=hidden;rotatable=0;points=[[0,0.5],[1,0.5]];portConstraint=eastwest;" parent="cP-wxG9GYSZYWmtrEP54-1" vertex="1">
                    <mxGeometry y="60" width="160" height="26" as="geometry"/>
                </mxCell>
                <mxCell id="jzOrQgl9RdJV5xGoV6pb-1" value="Animal" style="swimlane;fontStyle=1;align=center;verticalAlign=top;childLayout=stackLayout;horizontal=1;startSize=26;horizontalStack=0;resizeParent=1;resizeParentMax=0;resizeLast=0;collapsible=1;marginBottom=0;" parent="1" vertex="1">
                    <mxGeometry x="140" y="180" width="160" height="114" as="geometry"/>
                </mxCell>
                <mxCell id="jzOrQgl9RdJV5xGoV6pb-2" value="# Name: String&#10;# Age: int" style="text;strokeColor=none;fillColor=none;align=left;verticalAlign=top;spacingLeft=4;spacingRight=4;overflow=hidden;rotatable=0;points=[[0,0.5],[1,0.5]];portConstraint=eastwest;" parent="jzOrQgl9RdJV5xGoV6pb-1" vertex="1">
                    <mxGeometry y="26" width="160" height="54" as="geometry"/>
                </mxCell>
                <mxCell id="jzOrQgl9RdJV5xGoV6pb-3" value="" style="line;strokeWidth=1;fillColor=none;align=left;verticalAlign=middle;spacingTop=-1;spacingLeft=3;spacingRight=3;rotatable=0;labelPosition=right;points=[];portConstraint=eastwest;" parent="jzOrQgl9RdJV5xGoV6pb-1" vertex="1">
                    <mxGeometry y="80" width="160" height="8" as="geometry"/>
                </mxCell>
                <mxCell id="jzOrQgl9RdJV5xGoV6pb-4" value="+ sleep(): void" style="text;strokeColor=none;fillColor=none;align=left;verticalAlign=top;spacingLeft=4;spacingRight=4;overflow=hidden;rotatable=0;points=[[0,0.5],[1,0.5]];portConstraint=eastwest;" parent="jzOrQgl9RdJV5xGoV6pb-1" vertex="1">
                    <mxGeometry y="88" width="160" height="26" as="geometry"/>
                </mxCell>
                <mxCell id="jzOrQgl9RdJV5xGoV6pb-5" value="Monkey" style="swimlane;fontStyle=1;align=center;verticalAlign=top;childLayout=stackLayout;horizontal=1;startSize=26;horizontalStack=0;resizeParent=1;resizeParentMax=0;resizeLast=0;collapsible=1;marginBottom=0;" parent="1" vertex="1">
                    <mxGeometry x="290" y="340" width="160" height="60" as="geometry"/>
                </mxCell>
                <mxCell id="jzOrQgl9RdJV5xGoV6pb-7" value="" style="line;strokeWidth=1;fillColor=none;align=left;verticalAlign=middle;spacingTop=-1;spacingLeft=3;spacingRight=3;rotatable=0;labelPosition=right;points=[];portConstraint=eastwest;" parent="jzOrQgl9RdJV5xGoV6pb-5" vertex="1">
                    <mxGeometry y="26" width="160" height="8" as="geometry"/>
                </mxCell>
                <mxCell id="jzOrQgl9RdJV5xGoV6pb-8" value="+ climb(): void" style="text;strokeColor=none;fillColor=none;align=left;verticalAlign=top;spacingLeft=4;spacingRight=4;overflow=hidden;rotatable=0;points=[[0,0.5],[1,0.5]];portConstraint=eastwest;" parent="jzOrQgl9RdJV5xGoV6pb-5" vertex="1">
                    <mxGeometry y="34" width="160" height="26" as="geometry"/>
                </mxCell>
                <mxCell id="jzOrQgl9RdJV5xGoV6pb-9" value="Lion" style="swimlane;fontStyle=1;align=center;verticalAlign=top;childLayout=stackLayout;horizontal=1;startSize=26;horizontalStack=0;resizeParent=1;resizeParentMax=0;resizeLast=0;collapsible=1;marginBottom=0;" parent="1" vertex="1">
                    <mxGeometry x="20" y="340" width="160" height="60" as="geometry"/>
                </mxCell>
                <mxCell id="jzOrQgl9RdJV5xGoV6pb-11" value="" style="line;strokeWidth=1;fillColor=none;align=left;verticalAlign=middle;spacingTop=-1;spacingLeft=3;spacingRight=3;rotatable=0;labelPosition=right;points=[];portConstraint=eastwest;" parent="jzOrQgl9RdJV5xGoV6pb-9" vertex="1">
                    <mxGeometry y="26" width="160" height="8" as="geometry"/>
                </mxCell>
                <mxCell id="jzOrQgl9RdJV5xGoV6pb-12" value="+ hunt(): void" style="text;strokeColor=none;fillColor=none;align=left;verticalAlign=top;spacingLeft=4;spacingRight=4;overflow=hidden;rotatable=0;points=[[0,0.5],[1,0.5]];portConstraint=eastwest;" parent="jzOrQgl9RdJV5xGoV6pb-9" vertex="1">
                    <mxGeometry y="34" width="160" height="26" as="geometry"/>
                </mxCell>
                <mxCell id="jzOrQgl9RdJV5xGoV6pb-13" value="Extends" style="endArrow=block;endSize=16;endFill=0;html=1;rounded=0;entryX=0;entryY=0.5;entryDx=0;entryDy=0;exitX=0.5;exitY=0;exitDx=0;exitDy=0;" parent="1" source="jzOrQgl9RdJV5xGoV6pb-9" target="jzOrQgl9RdJV5xGoV6pb-2" edge="1">
                    <mxGeometry width="160" relative="1" as="geometry">
                        <mxPoint x="340" y="520" as="sourcePoint"/>
                        <mxPoint x="500" y="520" as="targetPoint"/>
                    </mxGeometry>
                </mxCell>
                <mxCell id="jzOrQgl9RdJV5xGoV6pb-14" value="Extends" style="endArrow=block;endSize=16;endFill=0;html=1;rounded=0;entryX=1;entryY=0.5;entryDx=0;entryDy=0;exitX=0.5;exitY=0;exitDx=0;exitDy=0;" parent="1" source="jzOrQgl9RdJV5xGoV6pb-5" target="jzOrQgl9RdJV5xGoV6pb-2" edge="1">
                    <mxGeometry width="160" relative="1" as="geometry">
                        <mxPoint x="280" y="634" as="sourcePoint"/>
                        <mxPoint x="260" y="467" as="targetPoint"/>
                    </mxGeometry>
                </mxCell>
                <mxCell id="XFrgDY7wlT-serOPZJYK-1" value="" style="endArrow=none;html=1;edgeStyle=orthogonalEdgeStyle;entryX=0;entryY=0.5;entryDx=0;entryDy=0;exitX=0.5;exitY=0;exitDx=0;exitDy=0;" parent="1" source="jzOrQgl9RdJV5xGoV6pb-1" target="cP-wxG9GYSZYWmtrEP54-2" edge="1">
                    <mxGeometry relative="1" as="geometry">
                        <mxPoint x="400" y="500" as="sourcePoint"/>
                        <mxPoint x="560" y="500" as="targetPoint"/>
                    </mxGeometry>
                </mxCell>
                <mxCell id="XFrgDY7wlT-serOPZJYK-4" value="lives in" style="edgeLabel;html=1;align=center;verticalAlign=middle;resizable=0;points=[];" parent="XFrgDY7wlT-serOPZJYK-1" vertex="1" connectable="0">
                    <mxGeometry x="0.1441" y="1" relative="1" as="geometry">
                        <mxPoint as="offset"/>
                    </mxGeometry>
                </mxCell>
            </root>
        </mxGraphModel>
    </diagram>
    <diagram id="1m7eJyxuM34W38xB9ZqN" name="Komposition">
        <mxGraphModel dx="1278" dy="910" grid="1" gridSize="10" guides="1" tooltips="1" connect="1" arrows="1" fold="1" page="1" pageScale="1" pageWidth="850" pageHeight="1100" math="0" shadow="0">
            <root>
                <mxCell id="ZOKHunnKOSiDheZmFSFn-0"/>
                <mxCell id="ZOKHunnKOSiDheZmFSFn-1" parent="ZOKHunnKOSiDheZmFSFn-0"/>
                <mxCell id="ZOKHunnKOSiDheZmFSFn-2" value="Zoo" style="swimlane;fontStyle=1;align=center;verticalAlign=top;childLayout=stackLayout;horizontal=1;startSize=26;horizontalStack=0;resizeParent=1;resizeParentMax=0;resizeLast=0;collapsible=1;marginBottom=0;" parent="ZOKHunnKOSiDheZmFSFn-1" vertex="1">
                    <mxGeometry x="320" y="110" width="160" height="86" as="geometry"/>
                </mxCell>
                <mxCell id="ZOKHunnKOSiDheZmFSFn-3" value="+ field: type" style="text;strokeColor=none;fillColor=none;align=left;verticalAlign=top;spacingLeft=4;spacingRight=4;overflow=hidden;rotatable=0;points=[[0,0.5],[1,0.5]];portConstraint=eastwest;" parent="ZOKHunnKOSiDheZmFSFn-2" vertex="1">
                    <mxGeometry y="26" width="160" height="26" as="geometry"/>
                </mxCell>
                <mxCell id="ZOKHunnKOSiDheZmFSFn-4" value="" style="line;strokeWidth=1;fillColor=none;align=left;verticalAlign=middle;spacingTop=-1;spacingLeft=3;spacingRight=3;rotatable=0;labelPosition=right;points=[];portConstraint=eastwest;" parent="ZOKHunnKOSiDheZmFSFn-2" vertex="1">
                    <mxGeometry y="52" width="160" height="8" as="geometry"/>
                </mxCell>
                <mxCell id="ZOKHunnKOSiDheZmFSFn-5" value="+ method(type): type" style="text;strokeColor=none;fillColor=none;align=left;verticalAlign=top;spacingLeft=4;spacingRight=4;overflow=hidden;rotatable=0;points=[[0,0.5],[1,0.5]];portConstraint=eastwest;" parent="ZOKHunnKOSiDheZmFSFn-2" vertex="1">
                    <mxGeometry y="60" width="160" height="26" as="geometry"/>
                </mxCell>
                <mxCell id="ZOKHunnKOSiDheZmFSFn-20" value="Toilet" style="swimlane;fontStyle=1;align=center;verticalAlign=top;childLayout=stackLayout;horizontal=1;startSize=26;horizontalStack=0;resizeParent=1;resizeParentMax=0;resizeLast=0;collapsible=1;marginBottom=0;" parent="ZOKHunnKOSiDheZmFSFn-1" vertex="1">
                    <mxGeometry x="310" y="340" width="160" height="86" as="geometry"/>
                </mxCell>
                <mxCell id="ZOKHunnKOSiDheZmFSFn-21" value="+ field: type" style="text;strokeColor=none;fillColor=none;align=left;verticalAlign=top;spacingLeft=4;spacingRight=4;overflow=hidden;rotatable=0;points=[[0,0.5],[1,0.5]];portConstraint=eastwest;" parent="ZOKHunnKOSiDheZmFSFn-20" vertex="1">
                    <mxGeometry y="26" width="160" height="26" as="geometry"/>
                </mxCell>
                <mxCell id="ZOKHunnKOSiDheZmFSFn-22" value="" style="line;strokeWidth=1;fillColor=none;align=left;verticalAlign=middle;spacingTop=-1;spacingLeft=3;spacingRight=3;rotatable=0;labelPosition=right;points=[];portConstraint=eastwest;" parent="ZOKHunnKOSiDheZmFSFn-20" vertex="1">
                    <mxGeometry y="52" width="160" height="8" as="geometry"/>
                </mxCell>
                <mxCell id="ZOKHunnKOSiDheZmFSFn-23" value="+ method(type): type" style="text;strokeColor=none;fillColor=none;align=left;verticalAlign=top;spacingLeft=4;spacingRight=4;overflow=hidden;rotatable=0;points=[[0,0.5],[1,0.5]];portConstraint=eastwest;" parent="ZOKHunnKOSiDheZmFSFn-20" vertex="1">
                    <mxGeometry y="60" width="160" height="26" as="geometry"/>
                </mxCell>
                <mxCell id="ZOKHunnKOSiDheZmFSFn-24" value="" style="endArrow=open;html=1;endSize=12;startArrow=diamondThin;startSize=14;startFill=1;edgeStyle=orthogonalEdgeStyle;align=left;verticalAlign=bottom;exitX=0;exitY=0.5;exitDx=0;exitDy=0;entryX=0.5;entryY=0;entryDx=0;entryDy=0;" parent="ZOKHunnKOSiDheZmFSFn-1" source="ZOKHunnKOSiDheZmFSFn-5" target="ZOKHunnKOSiDheZmFSFn-20" edge="1">
                    <mxGeometry x="-1" y="3" relative="1" as="geometry">
                        <mxPoint x="110" y="450" as="sourcePoint"/>
                        <mxPoint x="270" y="450" as="targetPoint"/>
                    </mxGeometry>
                </mxCell>
            </root>
        </mxGraphModel>
    </diagram>
    <diagram id="RL8yCjYHFra_uFbydMf6" name="Aggregation">
        <mxGraphModel dx="1278" dy="910" grid="1" gridSize="10" guides="1" tooltips="1" connect="1" arrows="1" fold="1" page="1" pageScale="1" pageWidth="850" pageHeight="1100" math="0" shadow="0">
            <root>
                <mxCell id="6MYJ6eImZyTf5zMXadLH-0"/>
                <mxCell id="6MYJ6eImZyTf5zMXadLH-1" parent="6MYJ6eImZyTf5zMXadLH-0"/>
                <mxCell id="jvZsnDPAwrAgyafs7LZD-4" value="Animal" style="swimlane;fontStyle=1;align=center;verticalAlign=top;childLayout=stackLayout;horizontal=1;startSize=26;horizontalStack=0;resizeParent=1;resizeParentMax=0;resizeLast=0;collapsible=1;marginBottom=0;" parent="6MYJ6eImZyTf5zMXadLH-1" vertex="1">
                    <mxGeometry x="340" y="70" width="160" height="114" as="geometry"/>
                </mxCell>
                <mxCell id="jvZsnDPAwrAgyafs7LZD-5" value="# Name: String&#10;# Age: int" style="text;strokeColor=none;fillColor=none;align=left;verticalAlign=top;spacingLeft=4;spacingRight=4;overflow=hidden;rotatable=0;points=[[0,0.5],[1,0.5]];portConstraint=eastwest;" parent="jvZsnDPAwrAgyafs7LZD-4" vertex="1">
                    <mxGeometry y="26" width="160" height="54" as="geometry"/>
                </mxCell>
                <mxCell id="jvZsnDPAwrAgyafs7LZD-6" value="" style="line;strokeWidth=1;fillColor=none;align=left;verticalAlign=middle;spacingTop=-1;spacingLeft=3;spacingRight=3;rotatable=0;labelPosition=right;points=[];portConstraint=eastwest;" parent="jvZsnDPAwrAgyafs7LZD-4" vertex="1">
                    <mxGeometry y="80" width="160" height="8" as="geometry"/>
                </mxCell>
                <mxCell id="jvZsnDPAwrAgyafs7LZD-7" value="+ sleep(): void" style="text;strokeColor=none;fillColor=none;align=left;verticalAlign=top;spacingLeft=4;spacingRight=4;overflow=hidden;rotatable=0;points=[[0,0.5],[1,0.5]];portConstraint=eastwest;" parent="jvZsnDPAwrAgyafs7LZD-4" vertex="1">
                    <mxGeometry y="88" width="160" height="26" as="geometry"/>
                </mxCell>
                <mxCell id="jvZsnDPAwrAgyafs7LZD-8" value="Monkey" style="swimlane;fontStyle=1;align=center;verticalAlign=top;childLayout=stackLayout;horizontal=1;startSize=26;horizontalStack=0;resizeParent=1;resizeParentMax=0;resizeLast=0;collapsible=1;marginBottom=0;" parent="6MYJ6eImZyTf5zMXadLH-1" vertex="1">
                    <mxGeometry x="630" y="300" width="160" height="60" as="geometry"/>
                </mxCell>
                <mxCell id="jvZsnDPAwrAgyafs7LZD-9" value="" style="line;strokeWidth=1;fillColor=none;align=left;verticalAlign=middle;spacingTop=-1;spacingLeft=3;spacingRight=3;rotatable=0;labelPosition=right;points=[];portConstraint=eastwest;" parent="jvZsnDPAwrAgyafs7LZD-8" vertex="1">
                    <mxGeometry y="26" width="160" height="8" as="geometry"/>
                </mxCell>
                <mxCell id="jvZsnDPAwrAgyafs7LZD-10" value="+ climb(): void" style="text;strokeColor=none;fillColor=none;align=left;verticalAlign=top;spacingLeft=4;spacingRight=4;overflow=hidden;rotatable=0;points=[[0,0.5],[1,0.5]];portConstraint=eastwest;" parent="jvZsnDPAwrAgyafs7LZD-8" vertex="1">
                    <mxGeometry y="34" width="160" height="26" as="geometry"/>
                </mxCell>
                <mxCell id="jvZsnDPAwrAgyafs7LZD-11" value="Lion" style="swimlane;fontStyle=1;align=center;verticalAlign=top;childLayout=stackLayout;horizontal=1;startSize=26;horizontalStack=0;resizeParent=1;resizeParentMax=0;resizeLast=0;collapsible=1;marginBottom=0;" parent="6MYJ6eImZyTf5zMXadLH-1" vertex="1">
                    <mxGeometry x="100" y="300" width="160" height="60" as="geometry"/>
                </mxCell>
                <mxCell id="jvZsnDPAwrAgyafs7LZD-12" value="" style="line;strokeWidth=1;fillColor=none;align=left;verticalAlign=middle;spacingTop=-1;spacingLeft=3;spacingRight=3;rotatable=0;labelPosition=right;points=[];portConstraint=eastwest;" parent="jvZsnDPAwrAgyafs7LZD-11" vertex="1">
                    <mxGeometry y="26" width="160" height="8" as="geometry"/>
                </mxCell>
                <mxCell id="jvZsnDPAwrAgyafs7LZD-13" value="+ hunt(): void" style="text;strokeColor=none;fillColor=none;align=left;verticalAlign=top;spacingLeft=4;spacingRight=4;overflow=hidden;rotatable=0;points=[[0,0.5],[1,0.5]];portConstraint=eastwest;" parent="jvZsnDPAwrAgyafs7LZD-11" vertex="1">
                    <mxGeometry y="34" width="160" height="26" as="geometry"/>
                </mxCell>
                <mxCell id="jvZsnDPAwrAgyafs7LZD-14" value="Extends" style="endArrow=block;endSize=16;endFill=0;html=1;rounded=0;entryX=0;entryY=0.5;entryDx=0;entryDy=0;exitX=0.5;exitY=0;exitDx=0;exitDy=0;" parent="6MYJ6eImZyTf5zMXadLH-1" source="jvZsnDPAwrAgyafs7LZD-11" target="jvZsnDPAwrAgyafs7LZD-5" edge="1">
                    <mxGeometry width="160" relative="1" as="geometry">
                        <mxPoint x="540" y="410" as="sourcePoint"/>
                        <mxPoint x="700" y="410" as="targetPoint"/>
                    </mxGeometry>
                </mxCell>
                <mxCell id="jvZsnDPAwrAgyafs7LZD-15" value="Extends" style="endArrow=block;endSize=16;endFill=0;html=1;rounded=0;entryX=1;entryY=0.5;entryDx=0;entryDy=0;exitX=0.5;exitY=0;exitDx=0;exitDy=0;" parent="6MYJ6eImZyTf5zMXadLH-1" source="jvZsnDPAwrAgyafs7LZD-8" target="jvZsnDPAwrAgyafs7LZD-5" edge="1">
                    <mxGeometry width="160" relative="1" as="geometry">
                        <mxPoint x="480" y="524" as="sourcePoint"/>
                        <mxPoint x="460" y="357" as="targetPoint"/>
                    </mxGeometry>
                </mxCell>
                <mxCell id="QI2EGBWgiFpNvXeivuS6-4" value="LionPack" style="swimlane;fontStyle=1;align=center;verticalAlign=top;childLayout=stackLayout;horizontal=1;startSize=26;horizontalStack=0;resizeParent=1;resizeParentMax=0;resizeLast=0;collapsible=1;marginBottom=0;" parent="6MYJ6eImZyTf5zMXadLH-1" vertex="1">
                    <mxGeometry x="425" y="430" width="160" height="86" as="geometry"/>
                </mxCell>
                <mxCell id="QI2EGBWgiFpNvXeivuS6-5" value="+ field: type" style="text;strokeColor=none;fillColor=none;align=left;verticalAlign=top;spacingLeft=4;spacingRight=4;overflow=hidden;rotatable=0;points=[[0,0.5],[1,0.5]];portConstraint=eastwest;" parent="QI2EGBWgiFpNvXeivuS6-4" vertex="1">
                    <mxGeometry y="26" width="160" height="26" as="geometry"/>
                </mxCell>
                <mxCell id="QI2EGBWgiFpNvXeivuS6-6" value="" style="line;strokeWidth=1;fillColor=none;align=left;verticalAlign=middle;spacingTop=-1;spacingLeft=3;spacingRight=3;rotatable=0;labelPosition=right;points=[];portConstraint=eastwest;" parent="QI2EGBWgiFpNvXeivuS6-4" vertex="1">
                    <mxGeometry y="52" width="160" height="8" as="geometry"/>
                </mxCell>
                <mxCell id="QI2EGBWgiFpNvXeivuS6-7" value="+ method(type): type" style="text;strokeColor=none;fillColor=none;align=left;verticalAlign=top;spacingLeft=4;spacingRight=4;overflow=hidden;rotatable=0;points=[[0,0.5],[1,0.5]];portConstraint=eastwest;" parent="QI2EGBWgiFpNvXeivuS6-4" vertex="1">
                    <mxGeometry y="60" width="160" height="26" as="geometry"/>
                </mxCell>
                <mxCell id="QI2EGBWgiFpNvXeivuS6-8" value="" style="endArrow=open;html=1;endSize=12;startArrow=diamondThin;startSize=14;startFill=0;edgeStyle=orthogonalEdgeStyle;align=left;verticalAlign=bottom;entryX=1;entryY=0.25;entryDx=0;entryDy=0;" parent="6MYJ6eImZyTf5zMXadLH-1" source="QI2EGBWgiFpNvXeivuS6-5" target="jvZsnDPAwrAgyafs7LZD-11" edge="1">
                    <mxGeometry x="-1" y="3" relative="1" as="geometry">
                        <mxPoint x="510" y="439" as="sourcePoint"/>
                        <mxPoint x="670" y="439" as="targetPoint"/>
                    </mxGeometry>
                </mxCell>
            </root>
        </mxGraphModel>
    </diagram>
    <diagram id="wF70iOEioEECWbgD9oZo" name="MultiplizitÃ¤ten">
        <mxGraphModel dx="1278" dy="910" grid="1" gridSize="10" guides="1" tooltips="1" connect="1" arrows="1" fold="1" page="1" pageScale="1" pageWidth="1100" pageHeight="850" math="0" shadow="0">
            <root>
                <mxCell id="EobM6axUrINGA-hRuUOz-0"/>
                <mxCell id="EobM6axUrINGA-hRuUOz-1" parent="EobM6axUrINGA-hRuUOz-0"/>
                <mxCell id="qvSy5ppdcFZHoD8Q9-wn-0" value="Animal" style="swimlane;fontStyle=1;align=center;verticalAlign=top;childLayout=stackLayout;horizontal=1;startSize=26;horizontalStack=0;resizeParent=1;resizeParentMax=0;resizeLast=0;collapsible=1;marginBottom=0;" vertex="1" parent="EobM6axUrINGA-hRuUOz-1">
                    <mxGeometry x="260" y="90" width="160" height="114" as="geometry"/>
                </mxCell>
                <mxCell id="qvSy5ppdcFZHoD8Q9-wn-1" value="# Name: String&#10;# Age: int" style="text;strokeColor=none;fillColor=none;align=left;verticalAlign=top;spacingLeft=4;spacingRight=4;overflow=hidden;rotatable=0;points=[[0,0.5],[1,0.5]];portConstraint=eastwest;" vertex="1" parent="qvSy5ppdcFZHoD8Q9-wn-0">
                    <mxGeometry y="26" width="160" height="54" as="geometry"/>
                </mxCell>
                <mxCell id="qvSy5ppdcFZHoD8Q9-wn-2" value="" style="line;strokeWidth=1;fillColor=none;align=left;verticalAlign=middle;spacingTop=-1;spacingLeft=3;spacingRight=3;rotatable=0;labelPosition=right;points=[];portConstraint=eastwest;" vertex="1" parent="qvSy5ppdcFZHoD8Q9-wn-0">
                    <mxGeometry y="80" width="160" height="8" as="geometry"/>
                </mxCell>
                <mxCell id="qvSy5ppdcFZHoD8Q9-wn-3" value="+ sleep(): void" style="text;strokeColor=none;fillColor=none;align=left;verticalAlign=top;spacingLeft=4;spacingRight=4;overflow=hidden;rotatable=0;points=[[0,0.5],[1,0.5]];portConstraint=eastwest;" vertex="1" parent="qvSy5ppdcFZHoD8Q9-wn-0">
                    <mxGeometry y="88" width="160" height="26" as="geometry"/>
                </mxCell>
                <mxCell id="qvSy5ppdcFZHoD8Q9-wn-4" value="Monkey" style="swimlane;fontStyle=1;align=center;verticalAlign=top;childLayout=stackLayout;horizontal=1;startSize=26;horizontalStack=0;resizeParent=1;resizeParentMax=0;resizeLast=0;collapsible=1;marginBottom=0;" vertex="1" parent="EobM6axUrINGA-hRuUOz-1">
                    <mxGeometry x="550" y="320" width="160" height="60" as="geometry"/>
                </mxCell>
                <mxCell id="qvSy5ppdcFZHoD8Q9-wn-5" value="" style="line;strokeWidth=1;fillColor=none;align=left;verticalAlign=middle;spacingTop=-1;spacingLeft=3;spacingRight=3;rotatable=0;labelPosition=right;points=[];portConstraint=eastwest;" vertex="1" parent="qvSy5ppdcFZHoD8Q9-wn-4">
                    <mxGeometry y="26" width="160" height="8" as="geometry"/>
                </mxCell>
                <mxCell id="qvSy5ppdcFZHoD8Q9-wn-6" value="+ climb(): void" style="text;strokeColor=none;fillColor=none;align=left;verticalAlign=top;spacingLeft=4;spacingRight=4;overflow=hidden;rotatable=0;points=[[0,0.5],[1,0.5]];portConstraint=eastwest;" vertex="1" parent="qvSy5ppdcFZHoD8Q9-wn-4">
                    <mxGeometry y="34" width="160" height="26" as="geometry"/>
                </mxCell>
                <mxCell id="qvSy5ppdcFZHoD8Q9-wn-7" value="Lion" style="swimlane;fontStyle=1;align=center;verticalAlign=top;childLayout=stackLayout;horizontal=1;startSize=26;horizontalStack=0;resizeParent=1;resizeParentMax=0;resizeLast=0;collapsible=1;marginBottom=0;" vertex="1" parent="EobM6axUrINGA-hRuUOz-1">
                    <mxGeometry x="20" y="320" width="160" height="60" as="geometry"/>
                </mxCell>
                <mxCell id="qvSy5ppdcFZHoD8Q9-wn-8" value="" style="line;strokeWidth=1;fillColor=none;align=left;verticalAlign=middle;spacingTop=-1;spacingLeft=3;spacingRight=3;rotatable=0;labelPosition=right;points=[];portConstraint=eastwest;" vertex="1" parent="qvSy5ppdcFZHoD8Q9-wn-7">
                    <mxGeometry y="26" width="160" height="8" as="geometry"/>
                </mxCell>
                <mxCell id="qvSy5ppdcFZHoD8Q9-wn-9" value="+ hunt(): void" style="text;strokeColor=none;fillColor=none;align=left;verticalAlign=top;spacingLeft=4;spacingRight=4;overflow=hidden;rotatable=0;points=[[0,0.5],[1,0.5]];portConstraint=eastwest;" vertex="1" parent="qvSy5ppdcFZHoD8Q9-wn-7">
                    <mxGeometry y="34" width="160" height="26" as="geometry"/>
                </mxCell>
                <mxCell id="qvSy5ppdcFZHoD8Q9-wn-10" value="Extends" style="endArrow=block;endSize=16;endFill=0;html=1;rounded=0;entryX=0;entryY=0.5;entryDx=0;entryDy=0;exitX=0.5;exitY=0;exitDx=0;exitDy=0;" edge="1" parent="EobM6axUrINGA-hRuUOz-1" source="qvSy5ppdcFZHoD8Q9-wn-7" target="qvSy5ppdcFZHoD8Q9-wn-1">
                    <mxGeometry width="160" relative="1" as="geometry">
                        <mxPoint x="460" y="430" as="sourcePoint"/>
                        <mxPoint x="620" y="430" as="targetPoint"/>
                    </mxGeometry>
                </mxCell>
                <mxCell id="qvSy5ppdcFZHoD8Q9-wn-11" value="Extends" style="endArrow=block;endSize=16;endFill=0;html=1;rounded=0;entryX=1;entryY=0.5;entryDx=0;entryDy=0;exitX=0.5;exitY=0;exitDx=0;exitDy=0;" edge="1" parent="EobM6axUrINGA-hRuUOz-1" source="qvSy5ppdcFZHoD8Q9-wn-4" target="qvSy5ppdcFZHoD8Q9-wn-1">
                    <mxGeometry width="160" relative="1" as="geometry">
                        <mxPoint x="400" y="544" as="sourcePoint"/>
                        <mxPoint x="380" y="377" as="targetPoint"/>
                    </mxGeometry>
                </mxCell>
                <mxCell id="qvSy5ppdcFZHoD8Q9-wn-12" value="LionPack" style="swimlane;fontStyle=1;align=center;verticalAlign=top;childLayout=stackLayout;horizontal=1;startSize=26;horizontalStack=0;resizeParent=1;resizeParentMax=0;resizeLast=0;collapsible=1;marginBottom=0;" vertex="1" parent="EobM6axUrINGA-hRuUOz-1">
                    <mxGeometry x="345" y="450" width="160" height="86" as="geometry"/>
                </mxCell>
                <mxCell id="qvSy5ppdcFZHoD8Q9-wn-13" value="+ field: type" style="text;strokeColor=none;fillColor=none;align=left;verticalAlign=top;spacingLeft=4;spacingRight=4;overflow=hidden;rotatable=0;points=[[0,0.5],[1,0.5]];portConstraint=eastwest;" vertex="1" parent="qvSy5ppdcFZHoD8Q9-wn-12">
                    <mxGeometry y="26" width="160" height="26" as="geometry"/>
                </mxCell>
                <mxCell id="qvSy5ppdcFZHoD8Q9-wn-14" value="" style="line;strokeWidth=1;fillColor=none;align=left;verticalAlign=middle;spacingTop=-1;spacingLeft=3;spacingRight=3;rotatable=0;labelPosition=right;points=[];portConstraint=eastwest;" vertex="1" parent="qvSy5ppdcFZHoD8Q9-wn-12">
                    <mxGeometry y="52" width="160" height="8" as="geometry"/>
                </mxCell>
                <mxCell id="qvSy5ppdcFZHoD8Q9-wn-15" value="+ method(type): type" style="text;strokeColor=none;fillColor=none;align=left;verticalAlign=top;spacingLeft=4;spacingRight=4;overflow=hidden;rotatable=0;points=[[0,0.5],[1,0.5]];portConstraint=eastwest;" vertex="1" parent="qvSy5ppdcFZHoD8Q9-wn-12">
                    <mxGeometry y="60" width="160" height="26" as="geometry"/>
                </mxCell>
                <mxCell id="qvSy5ppdcFZHoD8Q9-wn-16" value="" style="endArrow=open;html=1;endSize=12;startArrow=diamondThin;startSize=14;startFill=0;edgeStyle=orthogonalEdgeStyle;align=left;verticalAlign=bottom;entryX=1;entryY=0.25;entryDx=0;entryDy=0;" edge="1" parent="EobM6axUrINGA-hRuUOz-1" source="qvSy5ppdcFZHoD8Q9-wn-13" target="qvSy5ppdcFZHoD8Q9-wn-7">
                    <mxGeometry x="-1" y="3" relative="1" as="geometry">
                        <mxPoint x="430" y="459" as="sourcePoint"/>
                        <mxPoint x="590" y="459" as="targetPoint"/>
                    </mxGeometry>
                </mxCell>
                <mxCell id="tABIbmvGDDeHPV0DbU8t-4" value="1" style="edgeLabel;html=1;align=center;verticalAlign=middle;resizable=0;points=[];" vertex="1" connectable="0" parent="qvSy5ppdcFZHoD8Q9-wn-16">
                    <mxGeometry x="-0.8175" y="2" relative="1" as="geometry">
                        <mxPoint as="offset"/>
                    </mxGeometry>
                </mxCell>
                <mxCell id="tABIbmvGDDeHPV0DbU8t-5" value="3...*" style="edgeLabel;html=1;align=center;verticalAlign=middle;resizable=0;points=[];" vertex="1" connectable="0" parent="qvSy5ppdcFZHoD8Q9-wn-16">
                    <mxGeometry x="0.8376" y="1" relative="1" as="geometry">
                        <mxPoint as="offset"/>
                    </mxGeometry>
                </mxCell>
                <mxCell id="BmEfw9CJwyh6KANcNOo3-0" value="Zoo" style="swimlane;fontStyle=1;align=center;verticalAlign=top;childLayout=stackLayout;horizontal=1;startSize=26;horizontalStack=0;resizeParent=1;resizeParentMax=0;resizeLast=0;collapsible=1;marginBottom=0;" vertex="1" parent="EobM6axUrINGA-hRuUOz-1">
                    <mxGeometry x="870" y="109" width="160" height="86" as="geometry"/>
                </mxCell>
                <mxCell id="BmEfw9CJwyh6KANcNOo3-1" value="+ field: type" style="text;strokeColor=none;fillColor=none;align=left;verticalAlign=top;spacingLeft=4;spacingRight=4;overflow=hidden;rotatable=0;points=[[0,0.5],[1,0.5]];portConstraint=eastwest;" vertex="1" parent="BmEfw9CJwyh6KANcNOo3-0">
                    <mxGeometry y="26" width="160" height="26" as="geometry"/>
                </mxCell>
                <mxCell id="BmEfw9CJwyh6KANcNOo3-2" value="" style="line;strokeWidth=1;fillColor=none;align=left;verticalAlign=middle;spacingTop=-1;spacingLeft=3;spacingRight=3;rotatable=0;labelPosition=right;points=[];portConstraint=eastwest;" vertex="1" parent="BmEfw9CJwyh6KANcNOo3-0">
                    <mxGeometry y="52" width="160" height="8" as="geometry"/>
                </mxCell>
                <mxCell id="BmEfw9CJwyh6KANcNOo3-3" value="+ method(type): type" style="text;strokeColor=none;fillColor=none;align=left;verticalAlign=top;spacingLeft=4;spacingRight=4;overflow=hidden;rotatable=0;points=[[0,0.5],[1,0.5]];portConstraint=eastwest;" vertex="1" parent="BmEfw9CJwyh6KANcNOo3-0">
                    <mxGeometry y="60" width="160" height="26" as="geometry"/>
                </mxCell>
                <mxCell id="BmEfw9CJwyh6KANcNOo3-4" value="Toilet" style="swimlane;fontStyle=1;align=center;verticalAlign=top;childLayout=stackLayout;horizontal=1;startSize=26;horizontalStack=0;resizeParent=1;resizeParentMax=0;resizeLast=0;collapsible=1;marginBottom=0;" vertex="1" parent="EobM6axUrINGA-hRuUOz-1">
                    <mxGeometry x="860" y="339" width="160" height="86" as="geometry"/>
                </mxCell>
                <mxCell id="BmEfw9CJwyh6KANcNOo3-5" value="+ field: type" style="text;strokeColor=none;fillColor=none;align=left;verticalAlign=top;spacingLeft=4;spacingRight=4;overflow=hidden;rotatable=0;points=[[0,0.5],[1,0.5]];portConstraint=eastwest;" vertex="1" parent="BmEfw9CJwyh6KANcNOo3-4">
                    <mxGeometry y="26" width="160" height="26" as="geometry"/>
                </mxCell>
                <mxCell id="BmEfw9CJwyh6KANcNOo3-6" value="" style="line;strokeWidth=1;fillColor=none;align=left;verticalAlign=middle;spacingTop=-1;spacingLeft=3;spacingRight=3;rotatable=0;labelPosition=right;points=[];portConstraint=eastwest;" vertex="1" parent="BmEfw9CJwyh6KANcNOo3-4">
                    <mxGeometry y="52" width="160" height="8" as="geometry"/>
                </mxCell>
                <mxCell id="BmEfw9CJwyh6KANcNOo3-7" value="+ method(type): type" style="text;strokeColor=none;fillColor=none;align=left;verticalAlign=top;spacingLeft=4;spacingRight=4;overflow=hidden;rotatable=0;points=[[0,0.5],[1,0.5]];portConstraint=eastwest;" vertex="1" parent="BmEfw9CJwyh6KANcNOo3-4">
                    <mxGeometry y="60" width="160" height="26" as="geometry"/>
                </mxCell>
                <mxCell id="BmEfw9CJwyh6KANcNOo3-8" value="" style="endArrow=open;html=1;endSize=12;startArrow=diamondThin;startSize=14;startFill=1;edgeStyle=orthogonalEdgeStyle;align=left;verticalAlign=bottom;exitX=0;exitY=0.5;exitDx=0;exitDy=0;entryX=0.5;entryY=0;entryDx=0;entryDy=0;" edge="1" parent="EobM6axUrINGA-hRuUOz-1" source="BmEfw9CJwyh6KANcNOo3-3" target="BmEfw9CJwyh6KANcNOo3-4">
                    <mxGeometry x="-1" y="3" relative="1" as="geometry">
                        <mxPoint x="660" y="449" as="sourcePoint"/>
                        <mxPoint x="820" y="449" as="targetPoint"/>
                    </mxGeometry>
                </mxCell>
                <mxCell id="tABIbmvGDDeHPV0DbU8t-6" value="1" style="edgeLabel;html=1;align=center;verticalAlign=middle;resizable=0;points=[];" vertex="1" connectable="0" parent="BmEfw9CJwyh6KANcNOo3-8">
                    <mxGeometry x="-0.7525" y="1" relative="1" as="geometry">
                        <mxPoint as="offset"/>
                    </mxGeometry>
                </mxCell>
                <mxCell id="tABIbmvGDDeHPV0DbU8t-7" value="1...*" style="edgeLabel;html=1;align=center;verticalAlign=middle;resizable=0;points=[];" vertex="1" connectable="0" parent="BmEfw9CJwyh6KANcNOo3-8">
                    <mxGeometry x="0.8021" y="-4" relative="1" as="geometry">
                        <mxPoint as="offset"/>
                    </mxGeometry>
                </mxCell>
                <mxCell id="tABIbmvGDDeHPV0DbU8t-0" value="" style="endArrow=none;html=1;edgeStyle=orthogonalEdgeStyle;entryX=0;entryY=0;entryDx=0;entryDy=0;exitX=0.5;exitY=0;exitDx=0;exitDy=0;" edge="1" parent="EobM6axUrINGA-hRuUOz-1" source="qvSy5ppdcFZHoD8Q9-wn-0" target="BmEfw9CJwyh6KANcNOo3-0">
                    <mxGeometry relative="1" as="geometry">
                        <mxPoint x="490" y="691" as="sourcePoint"/>
                        <mxPoint x="820" y="670" as="targetPoint"/>
                    </mxGeometry>
                </mxCell>
                <mxCell id="tABIbmvGDDeHPV0DbU8t-1" value="lives in" style="edgeLabel;html=1;align=center;verticalAlign=middle;resizable=0;points=[];" vertex="1" connectable="0" parent="tABIbmvGDDeHPV0DbU8t-0">
                    <mxGeometry x="0.1441" y="1" relative="1" as="geometry">
                        <mxPoint as="offset"/>
                    </mxGeometry>
                </mxCell>
                <mxCell id="tABIbmvGDDeHPV0DbU8t-2" value="0...*" style="edgeLabel;html=1;align=center;verticalAlign=middle;resizable=0;points=[];" vertex="1" connectable="0" parent="tABIbmvGDDeHPV0DbU8t-0">
                    <mxGeometry x="-0.9019" y="2" relative="1" as="geometry">
                        <mxPoint as="offset"/>
                    </mxGeometry>
                </mxCell>
                <mxCell id="tABIbmvGDDeHPV0DbU8t-3" value="0...1" style="edgeLabel;html=1;align=center;verticalAlign=middle;resizable=0;points=[];" vertex="1" connectable="0" parent="tABIbmvGDDeHPV0DbU8t-0">
                    <mxGeometry x="0.852" y="-2" relative="1" as="geometry">
                        <mxPoint as="offset"/>
                    </mxGeometry>
                </mxCell>
            </root>
        </mxGraphModel>
    </diagram>
</mxfile>